<svg xmlns="http://www.w3.org/2000/svg" xmlns:xlink="http://www.w3.org/1999/xlink" width="1440" height="376" viewBox="0 0 1440 376">
  <defs>
    <path id="mountain-with-people-a" d="M1.29296875,13.1021205 C4.03613281,10.8648856 3.91491521,8.69218616 5.11230469,6.67089844 C6.39256302,4.50972157 10.7709961,3.01783177 10.7709961,0.802246094 C17.7602539,-0.260742187 19.9473828,6.45507813 23.6888624,12.296875 C27.4303421,18.1386719 22.6880812,24.5058594 20.8693359,27.2851563 C19.0505907,30.0644531 14.2720535,29.6635843 12.9220535,34.3651468 C11.5720535,39.0667093 2.14604743,32.5894132 7.95410156,23.7289063 C12.2042251,17.2451084 8.03409334,19.8045488 2.18115234,17.5180664 C1.24165234,17.1510458 -1.45019531,15.3393555 1.29296875,13.1021205 Z"/>
    <polygon id="mountain-with-people-c" points="0 0 36.706 0 36.706 39.158 0 39.158"/>
  </defs>
  <g fill="none" fill-rule="evenodd">
    <g fill-rule="nonzero" transform="translate(718)">
      <path fill="#FAFAFA" d="M454.53582,207.531067 C459.057299,207.531067 462.722392,211.621428 462.722392,216.536049 C462.722392,221.450671 459.057299,225.401119 454.53582,225.401119 L441.4417,225.401119 L414.430042,225.401119 C411.266766,225.401119 408.701273,222.642238 408.701273,219.206367 C408.701273,215.764942 411.266766,212.871701 414.430042,212.865355 C415.356755,212.865355 416.214605,213.126357 416.986011,213.549197 C417.491491,209.162134 420.897251,205.750855 425.07222,205.750855 C426.478771,205.750855 427.779099,206.171315 428.935842,206.849605 C430.595866,201.056777 435.567881,196.852178 441.4417,196.852178 C447.556539,196.852178 452.677267,201.413772 454.118983,207.573906 C454.258905,207.568353 454.392967,207.531067 454.53582,207.531067 Z"/>
      <g transform="translate(0 10)">
        <polygon fill="#00BDFF" points="360.197 111.919 360.197 36.647 277.219 111.919"/>
        <polygon fill="#F83A5C" points="360 35 360 0 380 17.5"/>
        <polygon fill="#0A9DFF" points="360 37 360 112.272 443 112.272"/>
        <polygon fill="#1599FF" points="361 36 0 366 361 366 361 111.794 278.087 111.794"/>
        <polygon fill="#1560FA" points="443.027 112 360 112 360 366 721.5 366"/>
      </g>
      <path fill="#FAFAFA" d="M615.380706,103.06272 C620.732197,103.06272 625.57601,105.403809 629.09239,109.190328 C631.428585,106.349447 634.828485,104.559716 638.62178,104.559716 C645.665528,104.559716 651.373785,110.73175 651.373785,118.349215 C651.373785,121.227382 650.555494,123.897699 649.165059,126.107891 C651.244118,128.079292 652.557633,130.972533 652.557633,134.202141 C652.557633,134.486943 652.57668,134.429395 652.557633,134.713403 L583.3648,134.713403 C583.330369,134.319123 583.283484,134.26164 583.283484,133.858633 C583.277623,126.064258 589.118477,119.748633 596.326323,119.748633 C598.209784,110.222439 606.023473,103.06272 615.380706,103.06272 Z"/>
      <polygon fill="#358847" points="163.3 376.004 166.077 376.004 166.077 367.004 163.3 367.004"/>
      <g transform="translate(154.367 292.78)">
        <polygon fill="#358847" points="248.673 .22 248.673 83.22 274.903 83.22"/>
        <path fill="#358847" d="M20.6656381,64.1279846 C20.6656381,70.2729413 16.0390212,75.2553026 10.3322,75.2553026 C4.62537887,75.2553026 0,70.2729413 0,64.1279846 C0,57.9830279 4.62537887,53 10.3322,53 C16.0390212,53 20.6656381,57.9830279 20.6656381,64.1279846 Z"/>
        <polygon fill="#358847" points="42.017 42.22 42.017 83.22 55.017 83.22"/>
        <polygon fill="#358847" points="286.825 41.126 286.825 83.126 299.542 83.126"/>
        <polygon fill="#358847" points="345.643 34.973 345.643 82.973 367.898 82.973"/>
        <polygon fill="#358847" points="114.347 35.22 114.347 83.22 136.602 83.22"/>
        <polygon fill="#358847" points="461.633 36.22 461.633 83.22 483.633 83.22"/>
        <path fill="#358847" d="M426.126433,63.9075795 C426.126433,70.1868974 421.425581,75.2781995 415.625788,75.2781995 C409.827253,75.2781995 405.125772,70.1868974 405.125772,63.9075795 C405.125772,57.6282615 409.827253,52.5362783 415.625788,52.5362783 C421.425581,52.5362783 426.126433,57.6282615 426.126433,63.9075795 Z"/>
        <path fill="#4CA440" d="M439.633,83.2199612 L461.633,36.2199612 L461.633,83.2199612 L439.633,83.2199612 Z M404.868276,64.5431018 C404.868276,58.2678608 409.566279,53.1805452 415.360526,53.1805452 L415.360526,75.9070199 C409.566279,75.9070199 404.868276,70.8190235 404.868276,64.5431018 Z M323.633,83.2199612 L345.633,37.2199612 L345.633,83.2199612 L323.633,83.2199612 Z M91.6329996,83.2199612 L114.633,35.2199612 L114.633,83.2199612 L91.6329996,83.2199612 Z M274.107865,83.1261086 L286.82518,43.1261086 L286.82518,83.1261086 L274.107865,83.1261086 Z M29.6329996,83.2199612 L42.6329996,43.2199612 L42.6329996,83.2199612 L29.6329996,83.2199612 Z M0.0436460656,64.1269846 C0.0436460656,57.9818438 4.66930206,53 10.3764652,53 L10.3764652,75.2553026 C4.66930206,75.2553026 0.0436460656,70.2727921 0.0436460656,64.1269846 Z M222.443769,83 L248.674395,1 L248.674395,83 L222.443769,83 Z"/>
      </g>
      <path fill="#FAFAFA" d="M253.56798,188.353096 C254.359165,185.480482 254.794317,182.432544 254.794317,179.290201 C254.794317,161.69911 241.519983,147.437585 225.147572,147.437585 C208.777358,147.437585 195.494233,161.693557 195.494233,179.283062 C195.140397,179.297341 194.782166,179.283062 194.426133,179.283062 C183.879923,179.283062 174.830373,186.142112 170.924994,195.930895 C167.14049,196.161751 163.986737,198.57221 162.859297,202.294471 L274.982001,202.294471 C274.982001,193.495752 268.341903,186.671256 260.160459,186.671256 C257.78617,186.671256 255.552537,187.284493 253.56798,188.353096 Z M292.628064,21.474723 C293.042829,19.9688059 293.27095,18.3709785 293.27095,16.7236608 C293.27095,7.50184243 286.312115,0.0254904672 277.729168,0.0254904672 C269.147374,0.0254904672 262.183931,7.49893124 262.183931,16.7199178 C261.998438,16.7274037 261.810642,16.7199178 261.623998,16.7199178 C256.095334,16.7199178 251.351268,20.3156534 249.303942,25.4472497 C247.319983,25.5682721 245.666683,27.1798347 245.075643,29.1311638 L303.853986,29.1311638 C303.853986,24.5185911 300.373032,20.5930483 296.084055,20.5930483 C294.839376,20.5930483 293.668433,20.9145268 292.628064,21.474723 Z"/>
      <polygon fill="#4CA440" points="568.296 375.335 571.072 375.335 571.072 367.93 568.296 367.93"/>
    </g>
    <g transform="translate(561 235)">
      <g transform="translate(260)">
        <path fill="#E29E66" fill-rule="nonzero" d="M33.6983181,6.85215108 C36.8147229,6.31498325 38.881859,9.35635794 37.119547,11.9270345 L29.522688,18.4078291 C28.4864393,19.8840745 26.4606613,20.2326539 24.9978121,19.1861428 L19.1372248,14.9946879 C16.8686598,13.3723638 17.540345,9.8100522 20.2408718,9.14149081 L33.6983181,6.85215108 Z" transform="matrix(-1 0 0 1 55.534 0)"/>
        <path fill="#FFB069" fill-rule="nonzero" d="M47.766809,26.2898449 C47.766809,35.4023449 40.379309,42.7898449 31.266809,42.7898449 C22.154309,42.7898449 14.766809,35.4023449 14.766809,26.2898449 C14.766809,17.1773449 22.154309,9.78984489 31.266809,9.78984489 C40.379309,9.78984489 47.766809,17.1773449 47.766809,26.2898449" transform="matrix(-1 0 0 1 62.534 0)"/>
        <polygon fill="#FFB069" fill-rule="nonzero" points="21.767 49.79 37.767 49.79 37.767 35.79 21.767 35.79" transform="matrix(-1 0 0 1 59.534 0)"/>
        <path fill="#14292F" fill-rule="nonzero" d="M35.9262599,63.9767726 C33.729949,59.5177691 35.5642238,54.1225707 40.0232274,51.9262599 C44.4822309,49.729949 49.8774293,51.5642238 52.0737401,56.0232274 L70.8553401,94.1540868 C72.1700995,96.8233431 72.0806022,99.9699023 70.6162484,102.560113 L51.8346484,135.781792 C49.3884394,140.108749 43.8977036,141.633396 39.5707468,139.187187 C35.2437899,136.740978 33.7191426,131.250243 36.1653516,126.923286 L52.6065249,97.8414508 L35.9262599,63.9767726 Z"/>
        <rect width="53" height="9" x="1" y="132" fill="#303030" fill-rule="nonzero"/>
        <path fill="#FFB069" fill-rule="nonzero" d="M27.1868449,5.21011919 L41.1868449,5.21011919 L41.1868449,40.2101192 L21.1868449,40.2101192 C17.3208516,40.2101192 14.1868449,37.0761125 14.1868449,33.2101192 L14.1868449,18.2101192 C14.1868449,11.0304175 20.0071431,5.21011919 27.1868449,5.21011919 Z" transform="rotate(45 27.687 22.71)"/>
        <g transform="translate(27.767 7.79)">
          <path fill="#494023" fill-rule="nonzero" d="M1.29296875,13.1021205 C4.03613281,10.8648856 3.91491521,8.69218616 5.11230469,6.67089844 C6.39256302,4.50972157 10.7709961,3.01783177 10.7709961,0.802246094 C17.7602539,-0.260742187 19.9473828,6.45507813 23.6888624,12.296875 C27.4303421,18.1386719 22.6880812,24.5058594 20.8693359,27.2851563 C19.0505907,30.0644531 14.2720535,29.6635843 12.9220535,34.3651468 C11.5720535,39.0667093 2.14604743,32.5894132 7.95410156,23.7289063 C12.2042251,17.2451084 8.03409334,19.8045488 2.18115234,17.5180664 C1.24165234,17.1510458 -1.45019531,15.3393555 1.29296875,13.1021205 Z"/>
          <mask id="mountain-with-people-b" fill="#fff">
            <use xlink:href="#mountain-with-people-a"/>
          </mask>
          <path fill="#8F8989" fill-rule="nonzero" d="M4.61572266,4.93798828 C4.60172526,8.15185547 6.7569987,10.2680664 11.081543,11.2866211 C15.4060872,12.3051758 17.7709961,15.0875651 18.1762695,19.6337891 C19.5449721,23.1217448 21.0923354,24.8657227 22.8183594,24.8657227 C21.3185064,27.7218424 20.1979524,29.4375 19.4566973,30.0126953 C14.5256048,29.3395182 12.0600586,26.5852865 12.0600586,21.75 C12.0600586,14.4970703 8.61328125,15.0131836 4.61572266,13.1499023 C1.95068359,11.9077148 1.25325521,9.17041016 2.5234375,4.93798828 L4.61572266,4.93798828 Z" mask="url(#mountain-with-people-b)" opacity=".202"/>
        </g>
        <path fill="#494023" fill-rule="nonzero" d="M38.6626871,9.31057825 C37.2830617,7.37509735 35.9370833,6.89122712 34.6247519,7.85896757 C32.6562549,9.31057825 35.5219945,1.40139856 40.66144,7.07932002 C44.087737,10.864601 43.421486,11.6083537 38.6626871,9.31057825 Z"/>
        <circle cx="33.767" cy="26.79" r="4" fill="#FFB069" fill-rule="nonzero"/>
        <path fill="#FFB069" fill-rule="nonzero" d="M18.2502441,38.0078125 C20.5958659,39.9623154 21.7686768,42.9690428 21.7686768,47.0279948 C25.4904974,47.0279948 28.4260036,47.0279948 30.5751953,47.0279948 L26.1471354,34 L18.2502441,38.0078125 Z"/>
        <polygon fill="#90B3E4" fill-rule="nonzero" points="16.654 49.309 19.617 43.586 37.978 43.586 38.478 47.254"/>
        <path fill="#1C363E" fill-rule="nonzero" d="M40.8485673,50.7306018 L39.83334,46.45685 C39.7224042,45.9898366 39.2952806,45.6675307 38.8157516,45.6889814 C24.3170985,46.3375461 16.2904223,46.9815243 14.7357228,47.6209162 C12.3597301,48.5980764 14.3117898,48.8801491 15.567294,49.6649503 C16.4042969,50.188151 16.9363755,50.8079805 17.1635298,51.5244388 L40.8485673,50.7306018 Z"/>
        <path fill="#1C363E" fill-rule="nonzero" d="M56.4848911,132 C32.8230122,132 15.101658,132 3.32082865,132 C-2.12101527,124.901869 3.07180521,112.122498 3.07180521,94.421599 C3.07180521,83.5837792 3.15481302,72.9948622 3.32082865,62.6548481 C3.32082865,55.1162393 9.13638962,50 16.2447945,50 L35.4848911,50 C47.0828709,50 56.4848911,59.4020203 56.4848911,71 L56.4848911,132 Z" transform="matrix(-1 0 0 1 57.32 0)"/>
        <path fill="#FFB069" fill-rule="nonzero" d="M4.25118363,127.22577 C2.03350432,133.593983 6.71552589,136.995671 18.2972483,137.430833 L4.25118363,127.22577 Z" transform="rotate(-36 11.007 132.328)"/>
      </g>
      <g fill-rule="nonzero" transform="translate(0 24)">
        <path fill="#141414" d="M47.4447192,68.7145097 L34.8375728,89.6274369 C32.4785659,92.3535075 32.7347876,96.4659062 35.4134692,98.8771212 L51.8582785,113.736374 L66.3159302,98.8771212 L47.4447192,68.7145097 Z" transform="matrix(-1 0 0 1 99.54 0)"/>
        <path fill="#E29E66" d="M34.0833701,12.425585 L19.9702925,14.8046719 C17.1381992,15.4994424 16.4337903,19.2014044 18.8128772,20.8873272 L24.9589855,25.2430964 C26.493103,26.3306331 28.6175746,25.9683886 29.7043081,24.4342711 L37.6712774,17.6994151 C39.5194472,15.0279623 37.3516026,11.867359 34.0833701,12.425585" transform="matrix(-1 0 0 1 55.726 0)"/>
        <path fill="#FFB069" d="M48.8539487,31.8827729 C48.8539487,41.6416878 40.9424004,49.5532361 31.1834855,49.5532361 C21.4245706,49.5532361 13.5130223,41.6416878 13.5130223,31.8827729 C13.5130223,22.1238581 21.4245706,14.2123098 31.1834855,14.2123098 C40.9424004,14.2123098 48.8539487,22.1238581 48.8539487,31.8827729" transform="matrix(-1 0 0 1 62.367 0)"/>
        <polygon fill="#FFB069" points="27.249 57.141 38.249 57.141 38.249 42.141 27.249 42.141" transform="matrix(-1 0 0 1 65.498 0)"/>
        <path fill="#303030" d="M54.2490234,117.140625 L2.2490234,117.140625 L2.2490234,75.878934 C2.2490234,68.3229829 8.54921445,62.140625 16.2499865,62.140625 L40.2488681,62.140625 C47.9488324,62.140625 54.2490234,68.3229829 54.2490234,75.878934 L54.2490234,117.140625 Z" transform="matrix(-1 0 0 1 56.498 0)"/>
        <polygon fill="#303030" points="19.249 63.141 43.249 63.141 43.249 54.141 19.249 54.141" transform="matrix(-1 0 0 1 62.498 0)"/>
        <path fill="#000" d="M54.2611612,14.9093292 C53.8756238,16.1719642 54.775211,18.4289642 55.7936723,19.2683112 L63.0353494,25.2345021 C63.6979917,25.7806801 63.7927697,26.7605876 63.2465917,27.42323 L62.3453981,28.5179955 C61.7992201,29.1806378 60.8185094,29.2754158 60.1558671,28.7292378 L58.9301795,27.7196118 C56.6386417,25.8312819 53.03708,26.5260524 51.849143,29.624809 C51.1543725,31.4376379 51.7704291,33.4978533 53.2692056,34.7323761 L54.4250146,35.6849747 C55.0884601,36.2311526 55.1824349,37.2110601 54.6362569,37.8745057 L48.8588187,44.88727 L30.6726993,30.2328336 C28.6863786,28.5886773 28.3827679,25.6553804 29.9899768,23.638538 L41.068554,10.1921188 C41.068554,10.1921188 46.5568393,3.18096092 46.2660798,0.165737343 C46.2660798,0.165737343 57.1583139,5.41948732 54.2611612,14.9093292" transform="matrix(-1 0 0 1 92.56 0)"/>
        <path fill="#BC9377" d="M18.2243046,48.8108357 C18.2243046,48.8108357 27.11817,46.5562452 30.1382128,37.9675969 C34.4224969,25.785419 24.4491269,18.1549917 24.4491269,18.1549917 C24.4499301,26.6014731 15.814696,26.0536888 15.814696,26.0536888 C15.814696,26.0536888 13.6725539,28.3291625 13.4050874,29.1323654 C13.4050874,29.1323654 23.8467247,35.6921232 18.2243046,48.8108357" transform="matrix(-1 0 0 1 44.613 0)"/>
        <path fill="#000" d="M27.6821702,10.3318761 C30.4965931,12.7061438 31.9471775,15.6161478 30.9222906,16.8313937 C29.8966005,18.0458365 26.7841894,17.1068923 23.9697665,14.7326246 L27.6821702,10.3318761 Z" transform="matrix(-1 0 0 1 55.22 0)"/>
        <polygon fill="#FFB069" points="19.579 105.143 12.574 112.148 8.031 107.604 15.035 100.599" transform="matrix(-1 0 0 1 27.61 0)"/>
        <path fill="#303030" d="M6.24902344,117.140625 L0.24902344,117.140625 L0.24902344,106.140625 L1.87990905,106.140625 C4.29258676,106.140625 6.24902344,108.088493 6.24902344,110.491383 L6.24902344,117.140625 Z" transform="matrix(-1 0 0 1 6.498 0)"/>
        <polygon fill="#000" points="39.757 14.732 29.078 26.033 31.086 27.64 30.684 26.234 41.929 14.387" transform="matrix(-1 0 0 1 71.007 0)"/>
      </g>
      <g transform="translate(70 18)">
        <g transform="translate(43)">
          <polygon fill="#E5A948" fill-rule="nonzero" points="10.424 14.509 19.028 14.509 19.028 24.726 10.424 24.726" transform="scale(-1 1) rotate(-42 0 57.98)"/>
          <polygon fill="#7C7C7C" fill-rule="nonzero" points="68.567 57.976 55.581 70.962 8.241 26.287 21.228 13.301"/>
          <path fill="#E5A948" fill-rule="nonzero" d="M14.021013,19.4311125 C10.9744645,22.477661 6.03476683,22.477661 2.98821834,19.4311125 C-0.0583301463,16.384564 -0.0583301463,11.4448664 2.98821834,8.39831786 C6.03476683,5.35176937 10.9744645,5.35176937 14.021013,8.39831786 C17.0675615,11.4448664 17.0675615,16.384564 14.021013,19.4311125"/>
          <path fill="#E5A948" fill-rule="nonzero" d="M13.6021427,13.2938394 L13.6021427,13.2938394 C14.4077552,12.4874237 14.406952,11.1685646 13.6013395,10.3637553 L3.98619791,0.75503934 C3.17978223,-0.051376338 1.86092311,-0.050573135 1.05531063,0.75584255 C0.249698155,1.56225823 0.250501357,2.88031414 1.05611384,3.68592662 L10.6712554,13.2946426 C11.4776711,14.1010582 12.7965302,14.100255 13.6021427,13.2938394"/>
          <path fill="#CE8E32" fill-rule="nonzero" d="M48.5609449,9.9919549 L34.4478673,12.3710418 C31.6157739,13.0658122 30.911365,16.7677743 33.2904519,18.4536971 L39.4365603,22.8094663 C40.9706778,23.897003 43.0951494,23.5347585 44.1818829,22.000641 L52.1488521,15.2657849 C53.9970219,12.5943322 51.8291774,9.4337289 48.5609449,9.9919549" transform="matrix(-1 0 0 1 84.68 0)"/>
          <path fill="#E5A948" fill-rule="nonzero" d="M61.4229166,29.2483421 C61.4229166,39.007257 53.5113683,46.9188052 43.7524534,46.9188052 C33.9935386,46.9188052 26.0819903,39.007257 26.0819903,29.2483421 C26.0819903,19.4894272 33.9935386,11.5778789 43.7524534,11.5778789 C53.5113683,11.5778789 61.4229166,19.4894272 61.4229166,29.2483421" transform="matrix(-1 0 0 1 87.505 0)"/>
          <g transform="translate(38.966 2.562)">
            <mask id="mountain-with-people-d" fill="#fff">
              <use xlink:href="#mountain-with-people-c"/>
            </mask>
            <path fill="#44230C" fill-rule="nonzero" d="M18.4599622,5.18461814 C16.5480453,3.20951143 13.6165531,2.92174188 11.6124133,4.80547963 L7.49327991,9.11922055 L7.58208713,9.20802777 C8.54957347,10.1755141 8.54957347,11.7450109 7.58208713,12.7124973 L0.484340911,19.8102435 C-0.16121926,20.4558037 -0.16121926,21.5027041 0.484340911,22.1482643 L1.55002754,23.2139509 C2.19558771,23.8595111 3.2424882,23.8595111 3.88804837,23.2139509 L5.08182234,22.0210309 C7.31481156,19.7880417 11.1967117,20.1560793 12.7696242,23.3130052 C13.6909991,25.1608784 13.2486709,27.4041146 11.7893291,28.8634564 L10.6638684,29.9889171 C10.0174543,30.6353312 10.0174543,31.6822317 10.6638684,32.3277918 L17.4943391,39.1582625 L31.508646,25.3301943 C33.4427648,23.3866824 33.4641127,20.2519584 31.5573192,18.2819752 L18.4599622,5.18461814 Z" mask="url(#mountain-with-people-d)"/>
          </g>
          <circle cx="51.163" cy="7.236" r="6.745" fill="#44230C" fill-rule="nonzero" transform="matrix(-1 0 0 1 102.326 0)"/>
          <polygon fill="#E5A948" fill-rule="nonzero" points="39.249 54.141 50.249 54.141 50.249 39.141 39.249 39.141" transform="matrix(-1 0 0 1 89.498 0)"/>
          <path fill="#A8A8A8" fill-rule="nonzero" d="M70.2490234,121.140625 L18.2490234,121.140625 L18.2490234,63.6604396 C18.2490234,56.9529812 23.8222694,51.4648437 30.6345529,51.4648437 L57.8643017,51.4648437 C64.6757775,51.4648437 70.2490234,56.9529812 70.2490234,63.6604396 L70.2490234,121.140625 Z" transform="matrix(-1 0 0 1 88.498 0)"/>
          <path fill="#2B3F61" fill-rule="nonzero" d="M19.8626503,94.4567165 C21.0287675,94.4567165 32.2830725,97.2071748 32.2830725,72.140625 L44.9580131,72.140625 C44.9580131,72.140625 43.6374427,94.4567165 60.009505,94.4567165 L70.2524414,94.4567165 L70.2524414,123.140625 L19.8626503,123.140625 L19.8626503,94.4567165 Z" transform="matrix(-1 0 0 1 90.115 0)"/>
          <polygon fill="#704528" fill-rule="nonzero" points="45.178 72.1 58.404 72.1 58.404 63.016 51.791 57.661 45.178 63.016" transform="matrix(-1 0 0 1 103.582 0)"/>
          <path fill="#2B3F61" fill-rule="nonzero" d="M35.9315868,64.0162759 C35.9315868,64.0162759 36.6641202,51.3963427 51.7908399,51.3963427 L42.1524054,51.2622078 C42.1524054,51.2622078 33.2231867,52.0075898 29.6240346,58.6613224 L35.9315868,64.0162759 Z" transform="matrix(-1 0 0 1 81.415 0)"/>
          <path fill="#2B3F61" fill-rule="nonzero" d="M59.0009464,57.6616436 C59.0009464,57.6616436 58.2988622,51.4799326 56.0233885,51.4799326 L50.8025699,51.4799326 C50.6274729,51.4799326 52.4572526,54.8897905 52.4572526,63.0165972 L59.0009464,57.6616436 Z" transform="matrix(-1 0 0 1 109.792 0)"/>
          <path fill="#A8A8A8" fill-rule="nonzero" d="M38.2408073,113.384512 L21.9288386,113.384512 L19.0700316,63.8298508 C19.0700316,58.6206608 23.3610774,54.3975103 28.6550144,54.3975103 L28.6550144,54.3975103 C33.9489515,54.3975103 38.2408073,58.6206608 38.2408073,63.8298508 L38.2408073,113.384512 Z" transform="matrix(-1 0 0 1 57.31 0)"/>
        </g>
        <g fill-rule="nonzero" transform="translate(0 30)">
          <polygon fill="#A86639" points="15.329 86.051 11.211 81.933 22.571 70.574 26.688 74.692" transform="matrix(-1 0 0 1 37.899 0)"/>
          <polygon fill="#A86639" points="64.625 75.093 68.743 70.975 80.101 82.335 75.983 86.452" transform="matrix(-1 0 0 1 144.726 0)"/>
          <path fill="#A86639" d="M67.5038974,90.1072131 C65.0701927,92.5409178 61.1248602,92.5409178 58.6911555,90.1072131 C56.2582541,87.6735084 56.2582541,83.7281759 58.6911555,81.2944712 C61.1248602,78.8615697 65.0701927,78.8615697 67.5038974,81.2944712 C69.9376021,83.7281759 69.9376021,87.6735084 67.5038974,90.1072131" transform="matrix(-1 0 0 1 126.196 0)"/>
          <path fill="#A86639" d="M32.966174,90.1072131 C30.5324693,92.5409178 26.5871368,92.5409178 24.1534321,90.1072131 C21.7205306,87.6735084 21.7205306,83.7281759 24.1534321,81.2944712 C26.5871368,78.8615697 30.5324693,78.8615697 32.966174,81.2944712 C35.3998787,83.7281759 35.3998787,87.6735084 32.966174,90.1072131" transform="matrix(-1 0 0 1 57.12 0)"/>
          <path fill="#CB8B2C" d="M87.2713994,47.2394048 L56.550496,66.2439755 C54.5641753,67.5371321 54.2372717,70.3146076 55.8677736,72.034265 L70.1366726,90.6284114 L80.0425736,79.5723239 L72.8137477,71.5402952 L90.4842109,60.6970564 L87.2713994,47.2394048 Z" transform="matrix(-1 0 0 1 145.31 0)"/>
          <path fill="#8D5128" d="M62.9451188,23.7788806 C62.9451188,33.3161115 55.2134879,41.0477424 45.676257,41.0477424 C36.1390261,41.0477424 28.4073953,33.3161115 28.4073953,23.7788806 C28.4073953,14.2416498 36.1390261,6.51001892 45.676257,6.51001892 C55.2134879,6.51001892 62.9451188,14.2416498 62.9451188,23.7788806" transform="matrix(-1 0 0 1 91.353 0)"/>
          <polygon fill="#8D5128" points="40.249 46.508 49.249 46.508 49.249 32.508 40.249 32.508" transform="matrix(-1 0 0 1 89.498 0)"/>
          <path fill="#FAA321" d="M29.7942232,93.1359863 C28.9107001,93.1359863 28.1878175,92.1464404 28.1878175,91.2629172 C28.1878175,91.2629172 23.5766298,74.3201124 22.5188116,64.9491445 C22.3790543,63.7130153 22.5188116,61.2182672 22.5188116,59.9749092 C22.5188116,52.317173 28.783794,46.0521906 36.440727,46.0521906 L52.5393221,46.0521906 C60.1962551,46.0521906 66.4612375,52.317173 66.4612375,59.9749092 C66.4612375,61.2182672 66.5969788,63.7130153 66.4612375,64.9491445 C65.6106456,72.7137067 60.7922316,91.2629172 60.7922316,91.2629172 C60.7922316,92.1464404 60.069349,93.1359863 59.1858259,93.1359863 L29.7942232,93.1359863 Z" transform="matrix(-1 0 0 1 88.978 0)"/>
          <path fill="#000" d="M67.1331792,18.8919534 C67.1331792,28.5528775 59.3019512,36.3841055 49.641027,36.3841055 C39.9801029,36.3841055 32.1488749,28.5528775 32.1488749,18.8919534 C32.1488749,9.23102928 39.9801029,1.39980129 49.641027,1.39980129 C59.3019512,1.39980129 67.1331792,9.23102928 67.1331792,18.8919534" transform="matrix(-1 0 0 1 99.282 0)"/>
          <path fill="#00BDFF" d="M66.4888137,9.71182652 C66.4888137,14.6017256 62.5250075,18.5655318 57.6351084,18.5655318 C52.7444061,18.5655318 48.7806,14.6017256 48.7806,9.71182652 C48.7806,4.82192745 52.7444061,0.858121278 57.6351084,0.858121278 C62.5250075,0.858121278 66.4888137,4.82192745 66.4888137,9.71182652" transform="matrix(-1 0 0 1 115.27 0)"/>
          <path fill="#A86639" d="M65.4805893,81.9464309 C65.4805893,83.6098641 64.1320116,84.9584417 62.4685785,84.9584417 C60.8051453,84.9584417 59.4565677,83.6098641 59.4565677,81.9464309 C59.4565677,80.2829978 60.8051453,78.9344202 62.4685785,78.9344202 C64.1320116,78.9344202 65.4805893,80.2829978 65.4805893,81.9464309" transform="matrix(-1 0 0 1 124.937 0)"/>
          <path fill="#A86639" d="M29.5916015,82.6512415 C29.5916015,84.3146746 28.2430238,85.6632522 26.5795907,85.6632522 C24.9161576,85.6632522 23.5675799,84.3146746 23.5675799,82.6512415 C23.5675799,80.9878083 24.9161576,79.6392307 26.5795907,79.6392307 C28.2430238,79.6392307 29.5916015,80.9878083 29.5916015,82.6512415" transform="matrix(-1 0 0 1 53.16 0)"/>
          <path fill="#FAA321" d="M6.0916764,47.1055108 L34.6110007,65.66832 C36.6455136,67.0642866 36.9507307,69.9477849 35.253563,71.7381241 L21.3525309,88.7539769 L11.1783602,79.1709634 L18.407186,71.1389347 L0.736722861,60.295696 L6.0916764,47.1055108 Z" transform="matrix(-1 0 0 1 37.09 0)"/>
          <path fill="#000" d="M69.2490234,38.140625 L52.2490234,38.140625 L52.2490234,14.8802159 C52.2490234,10.6236811 55.8056798,7.140625 60.1521593,7.140625 L61.34507,7.140625 C65.692367,7.140625 69.2490234,10.6236811 69.2490234,14.8802159 L69.2490234,38.140625 Z" transform="matrix(-1 0 0 1 121.498 0)"/>
        </g>
      </g>
      <g fill-rule="nonzero" transform="matrix(-1 0 0 1 265.82 24.15)">
        <path fill="#DB8F52" d="M49.7634996,13.4321413 C52.4511475,12.9725632 54.2355477,15.5727145 52.7145211,17.7698512 L46.1611145,23.3104184 C45.2675887,24.5716066 43.5194244,24.8703324 42.2582362,23.9759228 L37.2019936,20.3929814 C35.2452516,19.0054092 35.825027,15.9607045 38.1547343,15.3897671 L49.7634996,13.4321413 Z"/>
        <path fill="#FFB069" d="M52.500287,24.6249 C52.500287,35.1191885 43.9927899,43.6266856 33.4985014,43.6266856 C23.0042129,43.6266856 14.4967158,35.1191885 14.4967158,24.6249 C14.4967158,14.1306116 23.0042129,5.62311445 33.4985014,5.62311445 C43.9927899,5.62311445 52.500287,14.1306116 52.500287,24.6249"/>
        <polygon fill="#FFB069" points="29.027 48.867 39.264 48.867 39.264 34.241 29.027 34.241"/>
        <path fill="#FFB069" d="M49.1823808,106.486844 C46.7494793,104.05314 46.7494793,100.107807 49.1823808,97.6741025 C51.6160855,95.241201 55.561418,95.241201 57.9951227,97.6741025 C60.4288274,100.107807 60.4288274,104.05314 57.9951227,106.486844 C55.561418,108.920549 51.6160855,108.920549 49.1823808,106.486844 Z" transform="matrix(-1 0 0 1 107.178 0)"/>
        <path fill="#376472" d="M12.6689269,76.2939857 L0.928410502,58.8568003 L10.7377549,51.8494264 L24.7563075,72.6699843 C26.1347163,74.7172171 26.1773706,77.4189204 24.8643167,79.5112368 L10.8457642,101.849426 L0.820401265,95.1742952 L12.6689269,76.2939857 Z" transform="matrix(-1 0 0 1 26.64 0)"/>
        <path fill="#141414" d="M17.6087066,99.8494264 L50.5188918,99.8494264 C52.4629097,99.8494264 54.1254534,101.247135 54.4594236,103.162251 L56.8462802,116.849426 L12.8462802,116.849426 L13.6154474,103.617303 C13.7384132,101.5019 15.4897325,99.8494264 17.6087066,99.8494264 Z"/>
        <path fill="#3D7991" d="M15.6067623,100.81505 C14.6443378,100.81505 13.8568995,99.7338015 13.8568995,98.7684006 C13.8568995,98.7684006 11.8339184,79.7026116 10.6816338,69.4632192 C10.5293957,68.1125357 10.6816338,65.3865947 10.6816338,64.0280125 C10.6816338,55.6606201 17.5060986,48.8150504 25.8468196,48.8150504 L43.3830695,48.8150504 C51.7237905,48.8150504 58.5482553,55.6606201 58.5482553,64.0280125 C58.5482553,65.3865947 58.6961187,68.1125357 58.5482553,69.4632192 C57.621703,77.9473374 54.2501498,98.7684006 54.2501498,98.7684006 C54.2501498,99.7338015 53.4627115,100.81505 52.500287,100.81505 L15.6067623,100.81505 Z"/>
        <path fill="#C1842B" d="M48.3832629,19.2475715 C48.3832629,29.8779657 39.7661741,38.4950546 29.1357798,38.4950546 C18.5053855,38.4950546 9.88829671,29.8779657 9.88829671,19.2475715 C9.88829671,8.61717719 18.5053855,8.8380398e-05 29.1357798,8.8380398e-05 C39.7661741,8.8380398e-05 48.3832629,8.61717719 48.3832629,19.2475715"/>
        <path fill="#C1842B" d="M20.5140952,31.3400427 C14.1834073,22.7971934 15.9766456,10.7403395 24.5194948,4.41053538 C33.0623441,-1.92015253 45.119198,-0.126914252 51.4490021,8.41593502 L20.5140952,31.3400427 Z"/>
        <path fill="#C1842B" d="M27.1325893,59.1866013 L27.1325893,59.1866013 C17.4659943,59.1866013 9.6301541,51.2725408 9.6301541,41.5094501 L9.6301541,18.9710823 C9.6301541,9.20799173 17.4659943,1.29393113 27.1325893,1.29393113 L27.1325893,19.4130111 C36.7991842,19.4130111 44.6350245,9.20799173 44.6350245,18.9710823 L44.6350245,41.5094501 C44.6350245,51.2725408 36.7991842,59.1866013 27.1325893,59.1866013"/>
        <path fill="#3D7991" d="M42.3160346,59.8203268 L52.6888563,51.9842199 L69.1864108,73.8223843 C70.6488287,75.7582179 70.9114212,78.3473768 69.8674487,80.5374086 L60.890879,99.3683381 L49.1559817,93.7743963 L56.4334409,78.5078382 L42.3160346,59.8203268 Z"/>
        <path fill="#FFB069" d="M53.8083905,101.873448 C52.1449573,101.873448 50.7963797,100.52487 50.7963797,98.8614371 C50.7963797,97.198004 52.1449573,95.8494264 53.8083905,95.8494264 C55.4718236,95.8494264 56.8204013,97.198004 56.8204013,98.8614371 C56.8204013,100.52487 55.4718236,101.873448 53.8083905,101.873448 Z" transform="matrix(-1 0 0 1 107.617 0)"/>
      </g>
    </g>
  </g>
</svg>
