<svg xmlns="http://www.w3.org/2000/svg" width="64" height="61" viewBox="0 0 64 61">
  <g fill="none" fill-rule="evenodd" transform="translate(0 .125)">
    <path fill="#1560FA" fill-rule="nonzero" d="M14.5244141,55.02015 L25.159419,47.71875 L57.6466902,47.71875 C59.3035445,47.71875 60.6466902,46.3756042 60.6466902,44.71875 L60.6466902,6.71875 C60.6466902,5.06189575 59.3035445,3.71875 57.6466902,3.71875 L6.53193613,3.71875 C4.87508189,3.71875 3.53193613,5.06189575 3.53193613,6.71875 L3.53193613,44.71875 C3.53193613,46.3756042 4.87508189,47.71875 6.53193613,47.71875 L14.5244141,47.71875 L14.5244141,55.02015 Z M26.0901205,50.71875 L11.5244141,60.71875 L11.5244141,50.71875 L6.53193613,50.71875 C3.21822764,50.71875 0.531936135,48.0324585 0.531936135,44.71875 L0.531936135,6.71875 C0.531936135,3.4050415 3.21822764,0.71875 6.53193613,0.71875 L57.6466902,0.71875 C60.9603987,0.71875 63.6466902,3.4050415 63.6466902,6.71875 L63.6466902,44.71875 C63.6466902,48.0324585 60.9603987,50.71875 57.6466902,50.71875 L26.0901205,50.71875 Z"/>
    <g transform="rotate(90 18.806 32.026)">
      <ellipse cx="19.453" cy="18.583" fill="#157EFF" rx="6.47" ry="18.36"/>
      <ellipse cx="12.983" cy="18.583" fill="#0AB6F4" rx="6.47" ry="18.36"/>
      <ellipse cx="6.513" cy="18.583" fill="#00EFE9" rx="6.47" ry="18.36"/>
    </g>
  </g>
</svg>
