<svg width="24" height="24" viewBox="0 0 24 24" fill="none" xmlns="http://www.w3.org/2000/svg">
<path fill-rule="evenodd" clip-rule="evenodd" d="M23.0009 4H18.0453V6H20.6023L13.58 13.0851L10.7636 10.2884C10.1809 9.70977 9.24119 9.70727 8.6554 10.2828L0 18.7867L1.40167 20.2133L9.70479 12.0556L12.5259 14.8569C13.1141 15.4411 14.0646 15.4373 14.6482 14.8485L22.0009 7.42998V10H24.0009V5V4H23.0009Z" fill="#00CC17"/>
<rect x="9.00195" y="16" width="1.99861" height="8" fill="#00CC17"/>
<path d="M4.00586 20H6.00447V24H4.00586V20Z" fill="#00CC17"/>
<path d="M18.9941 13H20.9928V24H18.9941V13Z" fill="#00CC17"/>
<path d="M13.998 18H15.9967V24H13.998V18Z" fill="#00CC17"/>
</svg>
