<svg xmlns="http://www.w3.org/2000/svg" width="79" height="56" viewBox="0 0 79 56">
  <g fill="none" fill-rule="evenodd" transform="translate(0 .844)">
    <path fill="#1560FA" fill-rule="nonzero" d="M63.516754,24.2578125 L63.516754,5 C63.516754,2.23857625 61.2781778,-9.81284607e-15 58.516754,-1.42108547e-14 L5,-3.55271368e-15 C2.23857625,-3.04544837e-15 -3.89089055e-15,2.23857625 -3.55271368e-15,5 L-7.10542736e-15,44.2802402 C-3.08829501e-15,47.0416639 2.23857625,49.2802402 5,49.2802402 L19.1367187,49.2802402 L19.1367187,46.2802402 L5,46.2802402 C3.8954305,46.2802402 3,45.3848097 3,44.2802402 L3,5 C3,3.8954305 3.8954305,3 5,3 L58.516754,3 C59.6213235,3 60.516754,3.8954305 60.516754,5 L60.516754,24.2578125 L63.516754,24.2578125 Z M63.516754,24.2578125 L63.516754,5 C63.516754,2.23857625 61.2781778,-9.81284607e-15 58.516754,-1.42108547e-14 L5,-3.55271368e-15 C2.23857625,-3.04544837e-15 -3.89089055e-15,2.23857625 -3.55271368e-15,5 L-7.10542736e-15,44.2802402 C-3.08829501e-15,47.0416639 2.23857625,49.2802402 5,49.2802402 L19.1367187,49.2802402 L19.1367187,46.2802402 L5,46.2802402 C3.8954305,46.2802402 3,45.3848097 3,44.2802402 L3,5 C3,3.8954305 3.8954305,3 5,3 L58.516754,3 C59.6213235,3 60.516754,3.8954305 60.516754,5 L60.516754,24.2578125 L63.516754,24.2578125 Z"/>
    <rect width="24.093" height="3.285" x="29.568" y="12.046" fill="#1560FA"/>
    <rect width="24.093" height="3.285" x="29.568" y="18.617" fill="#1560FA"/>
    <g transform="translate(25.188 29.98)">
      <circle cx="12.215" cy="12.317" r="12.215" fill="#157EFF"/>
      <circle cx="26.742" cy="12.215" r="12.215" fill="#0AB6F4"/>
      <circle cx="41.457" cy="12.363" r="12.215" fill="#00EFE9"/>
    </g>
    <path fill="#1560FA" fill-rule="nonzero" d="M16.4267467,24.4974454 C11.9694229,24.4974454 8.35604804,20.8840705 8.35604804,16.4267467 C8.35604804,11.9694229 11.9694229,8.35604804 16.4267467,8.35604804 C20.8840705,8.35604804 24.4974454,11.9694229 24.4974454,16.4267467 C24.4974454,20.8840705 20.8840705,24.4974454 16.4267467,24.4974454 Z M16.4267467,21.4974454 C19.2272163,21.4974454 21.4974454,19.2272163 21.4974454,16.4267467 C21.4974454,13.6262772 19.2272163,11.356048 16.4267467,11.356048 C13.6262772,11.356048 11.356048,13.6262772 11.356048,16.4267467 C11.356048,19.2272163 13.6262772,21.4974454 16.4267467,21.4974454 Z"/>
  </g>
</svg>
