<svg width="24" height="25" viewBox="0 0 24 25" fill="none" xmlns="http://www.w3.org/2000/svg">
<path fill-rule="evenodd" clip-rule="evenodd" d="M4.27344 4.77202L12.1087 2.98678L19.7259 4.76743V10.759C19.7259 14.4926 17.9881 18.0135 15.0245 20.2843L12.1038 22.5222L9.09292 20.2736C6.0598 18.0083 4.27344 14.4447 4.27344 10.659V4.77202ZM12.4516 1.01301C12.2297 0.961155 11.999 0.960506 11.7769 1.01112L3.82913 2.822C2.91906 3.02936 2.27344 3.83863 2.27344 4.77202V10.659C2.27344 15.0756 4.35753 19.2332 7.89617 21.876L10.9071 24.1247C11.6242 24.6602 12.6098 24.6542 13.3203 24.1098L16.241 21.8719C19.6985 19.2226 21.7259 15.1149 21.7259 10.759V4.76743C21.7259 3.83825 21.086 3.03145 20.1812 2.81994L12.4516 1.01301ZM11.6467 15.4708L17.7231 9.39436L16.3089 7.98015L10.8938 13.3952L8.39263 11.2082L7.07612 12.7137L10.2813 15.5165L10.9854 16.1321L11.6467 15.4708Z" fill="#00CC17"/>
</svg>
