<svg xmlns="http://www.w3.org/2000/svg" width="73" height="79" viewBox="0 0 73 79">
  <g fill="none" fill-rule="evenodd" transform="translate(-.12 -.5)">
    <circle cx="16.635" cy="26.278" r="16.458" fill="#157EFF"/>
    <g transform="matrix(-1 0 0 1 73.24 35.385)">
      <g transform="matrix(1 0 0 -1 0 35.385)">
        <circle cx="16.635" cy="16.946" r="16.458" fill="#157EFF"/>
        <g fill="#FFF" transform="matrix(1 0 0 -1 10.287 25.33)">
          <ellipse cx="6.519" cy="3.679" rx="3.339" ry="3.395"/>
          <path d="M3.53223485,8.14448032 L9.34180418,8.14448032 C11.2532034,8.14448032 12.8026986,9.69397555 12.8026986,11.6053748 L12.8026986,13.0662692 C12.8026986,14.1708387 11.9072681,15.0662692 10.8026986,15.0662692 L2.07134039,15.0662692 C0.966770892,15.0662692 0.0713403917,14.1708387 0.0713403917,13.0662692 L0.0713403917,11.6053748 C0.0713403917,9.69397555 1.62083562,8.14448032 3.53223485,8.14448032 Z"/>
        </g>
      </g>
      <circle cx="36.914" cy="27.153" r="16.458" fill="#00EFE9"/>
      <g fill="#FFF" transform="translate(29.642 18.842)">
        <ellipse cx="6.6" cy="3.725" rx="3.38" ry="3.437"/>
        <path d="M3.57578554,8.24489771 L9.45698398,8.24489771 C11.3919498,8.24489771 12.9605495,9.81349744 12.9605495,11.7484633 L12.9605495,13.2520288 C12.9605495,14.3565983 12.065119,15.2520288 10.9605495,15.2520288 L2.07221998,15.2520288 C0.967650483,15.2520288 0.0722199831,14.3565983 0.0722199831,13.2520288 L0.0722199831,11.7484633 C0.0722199831,9.81349744 1.64081971,8.24489771 3.57578554,8.24489771 Z"/>
      </g>
      <circle cx="56.37" cy="17.014" r="16.458" fill="#0AB6F4"/>
      <g fill="#FFF" transform="translate(50.281 7.8)">
        <ellipse cx="6.274" cy="3.541" rx="3.213" ry="3.267"/>
        <path d="M3.39939334,7.83817989 L8.99047439,7.83817989 C10.8299891,7.83817989 12.3212103,9.32940117 12.3212103,11.1689158 L12.3212103,12.4996518 C12.3212103,13.6042213 11.4257798,14.4996518 10.3212103,14.4996518 L2.0686574,14.4996518 C0.964087898,14.4996518 0.0686573976,13.6042213 0.0686573976,12.4996518 L0.0686573976,11.1689158 C0.0686573976,9.32940117 1.55987867,7.83817989 3.39939334,7.83817989 Z"/>
      </g>
    </g>
    <circle cx="36.914" cy="17.153" r="16.458" fill="#00EFE9"/>
    <g fill="#FFF" transform="translate(9.297 7.138)">
      <g transform="translate(20.345 .506)">
        <ellipse cx="6.6" cy="3.725" rx="3.38" ry="3.437"/>
        <path d="M3.57578554,8.24489771 L9.45698398,8.24489771 C11.3919498,8.24489771 12.9605495,9.81349744 12.9605495,11.7484633 L12.9605495,13.2520288 C12.9605495,14.3565983 12.065119,15.2520288 10.9605495,15.2520288 L2.07221998,15.2520288 C0.967650483,15.2520288 0.0722199831,14.3565983 0.0722199831,13.2520288 L0.0722199831,11.7484633 C0.0722199831,9.81349744 1.64081971,8.24489771 3.57578554,8.24489771 Z"/>
      </g>
      <g transform="translate(.99 9.94)">
        <ellipse cx="6.519" cy="3.679" rx="3.339" ry="3.395"/>
        <path d="M3.53223485,8.14448032 L9.34180418,8.14448032 C11.2532034,8.14448032 12.8026986,9.69397555 12.8026986,11.6053748 L12.8026986,13.0662692 C12.8026986,14.1708387 11.9072681,15.0662692 10.8026986,15.0662692 L2.07134039,15.0662692 C0.966770892,15.0662692 0.0713403917,14.1708387 0.0713403917,13.0662692 L0.0713403917,11.6053748 C0.0713403917,9.69397555 1.62083562,8.14448032 3.53223485,8.14448032 Z"/>
      </g>
    </g>
    <circle cx="56.37" cy="27.292" r="16.458" fill="#0AB6F4"/>
    <g fill="#FFF" transform="translate(50.281 17.504)">
      <ellipse cx="6.274" cy="3.541" rx="3.213" ry="3.267"/>
      <path d="M3.39939334,7.83817989 L8.99047439,7.83817989 C10.8299891,7.83817989 12.3212103,9.32940117 12.3212103,11.1689158 L12.3212103,12.4996518 C12.3212103,13.6042213 11.4257798,14.4996518 10.3212103,14.4996518 L2.0686574,14.4996518 C0.964087898,14.4996518 0.0686573976,13.6042213 0.0686573976,12.4996518 L0.0686573976,11.1689158 C0.0686573976,9.32940117 1.55987867,7.83817989 3.39939334,7.83817989 Z"/>
    </g>
  </g>
</svg>
