<svg xmlns="http://www.w3.org/2000/svg" width="89" height="41" viewBox="0 0 89 41">
  <g fill="none" fill-rule="evenodd" transform="translate(1 .125)">
    <g transform="translate(.157 .622)">
      <path fill="#1560FA" fill-rule="nonzero" d="M19,39.5097533 C8.11967536,39.5097533 -0.700570475,30.6895075 -0.700570475,19.8091829 C-0.700570475,8.92885823 8.11967536,0.10861239 19,0.10861239 C29.8803246,0.10861239 38.7005705,8.92885823 38.7005705,19.8091829 C38.7005705,30.6895075 29.8803246,39.5097533 19,39.5097533 Z M19,36.5097533 C28.2234704,36.5097533 35.7005705,29.0326533 35.7005705,19.8091829 C35.7005705,10.5857125 28.2234704,3.10861239 19,3.10861239 C9.77652961,3.10861239 2.29942952,10.5857125 2.29942952,19.8091829 C2.29942952,29.0326533 9.77652961,36.5097533 19,36.5097533 Z"/>
      <circle cx="40.721" cy="19.809" r="19.721" fill="#157EFF"/>
    </g>
    <circle cx="54.332" cy="20.266" r="19.721" fill="#0AB6F4"/>
    <circle cx="68.089" cy="20.505" r="19.721" fill="#00EFE9"/>
  </g>
</svg>
